<?xml version="1.0" encoding="UTF-8"?>
<svg id="Capa_1" data-name="Capa 1" xmlns="http://www.w3.org/2000/svg" viewBox="0 0 1510.48 699.81">
  <defs>
    <style>
      .cls-1 {
        fill: #feead3;
        stroke-width: 0px;
      }
    </style>
  </defs>
  <path class="cls-1" d="m920.8,298.64c10.88-5.45,24.98-13.54,39.93-25.27,4.85-3.8,24.48-19.52,44.38-46.07,25.21-33.65,38.26-67.89,45.24-93.97H321.86c-149.37,0-271.58,122.21-271.58,271.58-.64,145.67,118.67,266.42,259.77,271.58.56-.03,224.56-.02,675,.02h6.17c2.04,0,3.69-1.65,3.69-3.69s-1.65-3.69-3.69-3.69h-274.84v-160.59h32.83c5.18,0,9.38-4.2,9.38-9.38v-37.89l95.53-18.77c2.54-.5,4.2-2.97,3.7-5.51-.5-2.54-2.98-4.19-5.51-3.7l-93.72,18.42v-15.8c0-5.18-4.2-9.38-9.38-9.38h-122.61c-5.18,0-9.38,4.2-9.38,9.38v59.95l-25.83,77.49-67.27-67.27h4.29c14.54,0,23.63-16.64,16.36-29.95l-26.52-48.55-26.31-48.15c-7.16-13.11-26-13.11-33.16,0l-26.3,48.15-26.52,48.55c-7.27,13.31,1.82,29.95,16.36,29.95h16.97l-36.49,91.22-32.59-32.59c6.68-8.15,10.69-18.56,10.69-29.91,0-26.09-21.15-47.23-47.23-47.23s-47.23,21.15-47.23,47.23c0,1.48.09,2.93.22,4.37l-72.07,14.03c-2.54.49-4.2,2.96-3.71,5.5.44,2.24,2.4,3.79,4.6,3.79.3,0,.6-.03.9-.09l72.06-14.03c3,9.99,9.23,18.56,17.46,24.57l-22.88,91.88c-80.6-13.36-137.97-93.02-138.28-177.26.2-55.67,25.42-109.28,65.67-143.23,21.3-18.65,46.89-32.54,75.13-39.86,21.53-5.58,38.87-5.82,46.05-5.85,28.44-.11,125.65-.27,269.21-.27h0c91.39.01,199.72.08,320.01.27Zm-213.8,209.9v160.59h-83.85l48.4-160.59h35.45Zm-196.14-2.47l79.27,79.27s.08.05.12.08c.23.22.52.36.79.52.27.16.51.35.8.46.05.02.08.06.13.07.49.16.99.24,1.48.24.56,0,1.1-.13,1.62-.32.15-.06.28-.14.43-.21.37-.18.72-.41,1.03-.68.07-.07.17-.09.24-.16.06-.06.08-.15.14-.21.27-.31.49-.65.69-1.03.07-.15.17-.28.23-.44.02-.05.06-.09.08-.15l25.22-75.66c1.08.43,2.25.69,3.49.69h35.15l-47.99,159.24c-.14.45-.13.9-.13,1.35h-86.89l-23.03-163.06h7.14Zm-55.12,163.05v-163.05h38.64c0,.22-.07.43-.04.66l22.94,162.4h-61.54Zm-117.38-87.34c9.52-.94,18.21-4.71,25.22-10.45l37.62,37.62s0,0,0,0c.27.27.63.44.96.64.2.12.38.3.59.39,0,0,0,0,.01,0,.57.23,1.16.34,1.74.34s1.08-.13,1.59-.31c.15-.05.28-.13.42-.2.38-.18.73-.42,1.06-.7.08-.07.17-.09.25-.16.04-.04.06-.1.1-.15.36-.39.68-.83.9-1.35,0-.02.03-.04.04-.06,0,0,0,0,0-.01l38.89-97.23v158.97h0s-109.4,0-109.4,0v-87.34Zm-24.02-3.93c4.55,2.05,9.46,3.42,14.64,3.93v87.28c-8.56-.15-16.94-1.01-25.19-2.26-3.85-.08-7.64-.37-11.41-.74l21.96-88.21Z"/>
  <path class="cls-1" d="m912.16,362.4c121.08-64.69,195.57-193.17,191.3-329.92-.29-9.34,12.51-12.77,16.92-4.53,64.67,120.57,193.42,194.59,330.63,190.07,9.37-.31,12.78,12.45,4.52,16.86-121.08,64.69-195.57,193.17-191.3,329.92.29,9.34-12.51,12.77-16.92,4.53-64.67-120.57-193.42-194.59-330.63-190.07-9.37.31-12.78-12.45-4.52-16.86Z"/>
</svg>